<svg width="250" height="45" viewBox="0 0 250 45" fill="none" xmlns="http://www.w3.org/2000/svg">
<g id="GMOG_LOGO 1">
<path id="Vector" fill-rule="evenodd" clip-rule="evenodd" d="M20.8807 1.50521C16.0991 1.99183 11.7696 4.00614 8.34025 7.32021C4.4256 11.1119 2.23329 16.0254 1.99511 21.5395C1.69418 28.6184 5.26564 35.6179 11.2036 39.5953C13.8108 41.3445 16.692 42.4586 19.9088 42.9542C21.3135 43.1668 24.4163 43.1668 25.8032 42.9452C30.408 42.2294 34.2612 40.3022 37.478 37.1213C42.5861 32.0836 44.7157 24.9778 43.2405 17.8989C42.339 13.568 39.8905 9.43184 36.4881 6.50706C33.3149 3.77564 29.4182 2.05329 25.3255 1.57565C24.3088 1.4604 21.7374 1.41686 20.8807 1.50521ZM24.8402 2.94584C31.3979 3.6527 37.1425 7.57632 40.1377 13.4182C42.8858 18.7735 42.992 25.216 40.4028 30.6071C39.9341 31.579 39.1299 32.9928 39.0415 32.9928C39.0236 32.9928 37.8314 32.25 36.3985 31.3485L33.7823 29.7043L33.1817 30.1909C32.8552 30.4649 32.2367 30.9861 31.7936 31.3485C31.3608 31.7199 30.9804 32.0208 30.9536 32.0208C30.9087 32.0208 27.1977 28.7426 26.9762 28.5031C26.7994 28.3085 26.8609 28.3623 28.1863 29.3688L29.2735 30.1909L30.1302 30.1384C31.9511 30.0142 34.0717 29.4315 35.9631 28.53C36.9081 28.0793 38.5178 27.1073 38.7201 26.8602C38.7995 26.7718 38.6497 26.6655 38.0478 26.3825C35.9272 25.4106 33.5223 24.8715 31.2698 24.8625H30.2275L30.5899 24.4387C31.8448 23.007 32.2508 22.4948 32.8526 21.5933C33.6747 20.3652 34.6287 18.438 35.0885 17.0857C35.4598 15.9985 35.8491 14.4427 35.7774 14.3633C35.6365 14.2224 33.329 15.0522 31.9152 15.7591C30.1481 16.6337 28.751 17.5967 27.1874 19.0117L26.2949 19.8159L26.2424 18.2958C26.1451 15.4761 25.6149 13.0379 24.5367 10.4832C24.1653 9.58167 23.3701 8.04372 23.0077 7.50461L22.84 7.2485L22.5659 7.68133C22.1062 8.40612 21.3558 9.91717 20.9665 10.8981C19.9946 13.3375 19.3761 16.5812 19.3761 19.2409V19.8504L18.7396 19.2409C16.6011 17.1907 14.0912 15.6707 11.2714 14.7333C10.626 14.5118 10.0344 14.344 9.96399 14.362C9.86667 14.3799 9.90253 14.6181 10.1407 15.5375C10.9539 18.7363 12.6147 21.7943 14.825 24.1364L15.4793 24.8343L14.0477 24.8869C13.1731 24.9137 12.2267 25.0111 11.6172 25.1161C10.4596 25.3376 8.61301 25.9292 7.53478 26.4235L6.7831 26.7769L7.75504 27.4134C9.79624 28.7656 12.1294 29.6582 14.5599 30.0296C16.2387 30.2767 16.1593 30.3036 17.6358 29.1895C18.3516 28.6504 18.9356 28.2355 18.9356 28.2521C18.9356 28.279 17.8215 29.2779 16.4615 30.4701C15.1016 31.6623 13.9875 32.6701 13.9875 32.7059C13.9875 32.7418 14.2974 32.9274 14.6764 33.1118C15.6304 33.5805 16.7176 34.322 17.1594 34.7996C17.8228 35.5244 17.9201 36.0635 17.486 36.5937C17.194 36.9381 16.9917 37.362 16.9917 37.6271C16.9917 38.5465 18.4233 39.6683 21.1804 40.9143C23.178 41.8158 23.1153 41.7453 21.941 41.6916C19.9433 41.5942 17.8317 41.1704 16.126 40.516C15.3833 40.233 15.2604 40.1536 14.7302 39.5876C14.1476 38.9781 13.6341 38.0855 13.6341 37.6962C13.6341 37.2544 13.8197 37.0688 14.5266 36.7768C14.9594 36.609 15.3129 36.3965 15.446 36.2377C16.1977 35.3451 15.2245 34.2221 11.3188 31.4471L10.1087 30.5904L8.36714 31.757L6.61791 32.9236L6.4143 32.6675C6.0519 32.2257 4.72653 29.4418 4.40767 28.4609C3.7008 26.2955 3.43573 24.5629 3.43573 22.2476C3.43573 19.1013 4.02735 16.53 5.42443 13.6666C6.58205 11.272 8.58868 8.78773 10.7182 7.08203C13.4842 4.87307 17.276 3.30823 20.7488 2.94584C21.7822 2.83955 23.8503 2.83059 24.8402 2.93687V2.94584ZM22.9757 16.7771C22.9757 18.7658 22.9578 20.8339 22.9232 21.373L22.8707 22.3449L22.7823 21.6381C22.6671 20.7276 22.6671 12.8445 22.7823 11.9161L22.8707 11.2093L22.9232 12.1812C22.9591 12.7113 22.9757 14.7794 22.9757 16.7771ZM14.8711 19.3843C16.0646 20.5778 17.2567 21.8058 17.5218 22.1234L18.0084 22.6984L17.4335 22.2118C16.6907 21.5843 12.6698 17.5634 12.0423 16.8206L11.5557 16.2457L12.1307 16.7323C12.4483 16.9974 13.6776 18.1908 14.8698 19.383L14.8711 19.3843ZM33.5979 16.8924C33.3764 17.1216 32.7489 17.7849 32.2021 18.3688C31.0445 19.5879 27.943 22.5665 27.8277 22.5665C27.7483 22.5665 27.9161 22.3808 29.6487 20.5342C30.7359 19.3856 33.8911 16.3712 33.9526 16.4339C33.9795 16.4518 33.8194 16.6631 33.5992 16.8936L33.5979 16.8924ZM16.3732 26.896C16.7625 27.0023 12.7415 27.0907 10.717 27.0292C9.6477 26.9934 8.78973 26.9319 8.82558 26.905C8.97541 26.7552 15.8161 26.7462 16.3732 26.896ZM36.6994 26.896C37.0887 27.0023 33.0677 27.0907 31.0432 27.0292C29.9739 26.9934 29.116 26.9319 29.1518 26.905C29.3016 26.7552 36.1424 26.7462 36.6994 26.896ZM28.427 31.5803C31.3697 33.957 33.7913 35.9111 33.8182 35.9111C33.854 35.9111 33.8707 34.8598 33.8707 33.569C33.8707 32.2782 33.8975 31.2269 33.9232 31.2269C34.0819 31.2269 38.1119 34.1875 38.0939 34.2848C38.0414 34.5141 36.6443 36.0264 35.7876 36.7768C33.393 38.8884 30.8562 40.2586 27.8252 41.0807L26.9685 41.31L25.9171 40.3291C25.3345 39.781 24.8568 39.3213 24.8568 39.3033C24.8568 39.2854 25.0425 38.8974 25.2717 38.4377C25.501 37.969 25.67 37.581 25.6521 37.5631C25.6252 37.5451 24.5559 36.6705 23.283 35.6012C21.4096 34.0543 20.9768 33.6574 21.0907 33.5946C21.1701 33.5498 21.8591 33.277 22.6197 32.9851C23.3804 32.6931 24.0245 32.437 24.0603 32.4191C24.0962 32.4011 23.8657 31.2346 23.566 29.8388C22.9296 26.9485 22.9911 27.2495 23.0449 27.2495C23.0628 27.2495 25.4933 29.1934 28.427 31.5803Z" fill="#15310A"/>
<path id="Vector_2" fill-rule="evenodd" clip-rule="evenodd" d="M22.7375 4.83722C22.7375 5.88856 22.7733 6.57877 22.8258 6.61335C22.8873 6.6492 22.9142 6.05631 22.9142 4.89869C22.9142 3.74107 22.8783 3.12256 22.8258 3.12256C22.7733 3.12256 22.7375 3.75003 22.7375 4.83722Z" fill="#15310A"/>
<path id="Vector_3" fill-rule="evenodd" clip-rule="evenodd" d="M25.5291 3.62583C25.5022 3.81151 25.3166 5.2342 25.1232 6.79008C24.9285 8.34595 24.7518 9.75072 24.7249 9.90054C24.6891 10.1131 24.707 10.1925 24.7954 10.1925C24.9452 10.1925 25.8032 3.50289 25.67 3.36972C25.6175 3.31721 25.5637 3.40557 25.5291 3.62583Z" fill="#15310A"/>
<path id="Vector_4" fill-rule="evenodd" clip-rule="evenodd" d="M19.6795 3.62587C19.7064 3.76673 19.9267 5.36742 20.1828 7.18709C20.4299 9.00804 20.6515 10.5191 20.6694 10.537C20.8282 10.7048 20.7667 10.0069 20.3595 6.98476C20.1034 5.07545 19.8729 3.49397 19.8473 3.44915C19.75 3.29036 19.6347 3.4133 19.6795 3.62587Z" fill="#15310A"/>
<path id="Vector_5" fill-rule="evenodd" clip-rule="evenodd" d="M16.966 4.06755C16.9212 4.14694 19.4938 13.7806 19.5912 13.8779C19.6181 13.9048 19.6706 13.9137 19.6975 13.8779C19.7589 13.8254 17.1876 4.17384 17.0813 4.06755C17.0454 4.02273 16.9929 4.02273 16.966 4.06755Z" fill="#15310A"/>
<path id="Vector_6" fill-rule="evenodd" clip-rule="evenodd" d="M28.4731 4.37746C28.4206 4.59004 27.8457 6.74649 27.1913 9.1757C26.5369 11.6062 25.9812 13.6653 25.9543 13.7447C25.9274 13.842 25.9543 13.9035 26.0247 13.9035C26.1041 13.9035 26.5549 12.3745 27.4474 9.01691C28.1632 6.33927 28.7472 4.11239 28.7472 4.06757C28.7472 4.03171 28.7113 4.0061 28.6588 4.0061C28.614 4.0061 28.5346 4.17386 28.4731 4.37746Z" fill="#15310A"/>
<path id="Vector_7" fill-rule="evenodd" clip-rule="evenodd" d="M28.8342 10.784C27.5613 13.9393 26.4921 16.5811 26.4652 16.6605C26.4204 16.8372 26.5804 16.882 26.6509 16.7053C26.6778 16.6528 27.7201 14.0891 28.9661 11.0312C30.2211 7.96425 31.2634 5.37497 31.2903 5.25972C31.4581 4.48243 30.8754 5.78987 28.8329 10.7828L28.8342 10.784Z" fill="#15310A"/>
<path id="Vector_8" fill-rule="evenodd" clip-rule="evenodd" d="M14.1373 5.21629C14.0848 5.30465 18.9356 16.8552 19.0956 17.014C19.175 17.0934 19.2019 17.0934 19.2019 16.9961C19.2019 16.8552 14.3589 5.33026 14.2526 5.21501C14.2167 5.17019 14.1642 5.17019 14.1373 5.21501V5.21629Z" fill="#15310A"/>
<path id="Vector_9" fill-rule="evenodd" clip-rule="evenodd" d="M11.7786 6.74534C11.7786 6.85163 18.4682 18.4906 18.6372 18.6673C18.7076 18.7377 18.7781 18.7736 18.8139 18.7467C18.8754 18.6763 11.9476 6.65698 11.8503 6.65698C11.8144 6.65698 11.7798 6.7018 11.7798 6.74534H11.7786Z" fill="#15310A"/>
<path id="Vector_10" fill-rule="evenodd" clip-rule="evenodd" d="M33.6606 6.85163C32.9883 7.91193 26.8289 18.73 26.8647 18.7915C26.8916 18.8363 26.9441 18.8363 26.98 18.7915C27.0594 18.7121 33.8642 6.93999 33.9347 6.76327C34.0141 6.57759 33.7938 6.64802 33.6606 6.85163Z" fill="#15310A"/>
<path id="Vector_11" fill-rule="evenodd" clip-rule="evenodd" d="M32.9538 12.2784C31.3185 14.4349 29.9573 16.2648 29.9317 16.3352C29.746 16.8039 30.3824 16.0254 33.0076 12.5525C34.6339 10.405 35.9951 8.60198 36.0207 8.54051C36.0566 8.48801 36.0476 8.4163 36.0118 8.39069C35.9669 8.36379 34.5891 10.1143 32.9538 12.2797V12.2784Z" fill="#15310A"/>
<path id="Vector_12" fill-rule="evenodd" clip-rule="evenodd" d="M9.44538 8.59307C9.37495 8.69935 15.3142 16.2994 15.4102 16.238C15.4627 16.2111 15.4627 16.1496 15.4192 16.0881C13.5636 13.6756 9.55039 8.51367 9.52478 8.51367C9.50685 8.51367 9.47228 8.54953 9.44538 8.59307Z" fill="#15310A"/>
<path id="Vector_13" fill-rule="evenodd" clip-rule="evenodd" d="M7.67692 10.6163C7.61545 10.7136 11.2561 14.4336 11.4149 14.4336C11.4674 14.4336 11.5122 14.4067 11.5122 14.3632C11.5122 14.23 7.72942 10.5279 7.67692 10.6163Z" fill="#15310A"/>
<path id="Vector_14" fill-rule="evenodd" clip-rule="evenodd" d="M36.0822 12.4463C35.0398 13.4887 34.2177 14.3736 34.2523 14.4081C34.3406 14.4875 38.0619 10.7765 38.0171 10.6433C37.9992 10.5908 37.1246 11.395 36.0822 12.4463Z" fill="#15310A"/>
<path id="Vector_15" fill-rule="evenodd" clip-rule="evenodd" d="M37.6905 14.1161C35.8529 15.5478 35.7108 15.672 35.9144 15.672C36.0553 15.672 39.4577 13.0738 39.5115 12.9239C39.5998 12.6768 39.1401 12.9854 37.6905 14.1174V14.1161Z" fill="#15310A"/>
<path id="Vector_16" fill-rule="evenodd" clip-rule="evenodd" d="M6.034 13.0994C6.034 13.1878 9.56961 15.9102 9.78986 15.9896C9.86029 16.0255 9.92304 16.0076 9.92304 15.9538C9.92304 15.8654 6.21071 13.02 6.09674 13.02C6.06089 13.02 6.03528 13.0559 6.03528 13.0994H6.034Z" fill="#15310A"/>
<path id="Vector_17" fill-rule="evenodd" clip-rule="evenodd" d="M4.99032 15.5042C5.03514 15.6373 10.6901 18.9424 10.8758 18.9424C10.9283 18.9424 10.982 18.9155 10.982 18.872C10.982 18.8195 5.28997 15.5054 5.04283 15.4171C4.99032 15.3991 4.9724 15.444 4.99032 15.5054V15.5042Z" fill="#15310A"/>
<path id="Vector_18" fill-rule="evenodd" clip-rule="evenodd" d="M37.7162 17.0858C36.1257 18.0052 34.7734 18.8005 34.7286 18.844C34.6838 18.8875 34.6838 18.9413 34.7286 18.9682C34.817 19.0207 40.7024 15.6362 40.7472 15.5043C40.7652 15.4518 40.7472 15.407 40.7024 15.407C40.6576 15.407 39.3143 16.1587 37.7149 17.0858H37.7162Z" fill="#15310A"/>
<path id="Vector_19" fill-rule="evenodd" clip-rule="evenodd" d="M37.478 19.5072C33.6069 21.1514 33.3508 21.2654 33.4391 21.3627C33.5096 21.4421 41.4106 18.1011 41.4554 17.9782C41.4733 17.9257 41.4375 17.8809 41.367 17.8898C41.3056 17.8988 39.5551 18.6236 37.478 19.5072Z" fill="#15310A"/>
<path id="Vector_20" fill-rule="evenodd" clip-rule="evenodd" d="M4.19512 18.2612C4.27452 18.3227 6.13004 19.1012 8.32235 19.9938C11.7773 21.3985 12.6263 21.7084 12.3702 21.4523C12.2639 21.346 4.34495 18.1472 4.19512 18.1472C4.05426 18.1562 4.05426 18.1651 4.19512 18.2625V18.2612Z" fill="#15310A"/>
<path id="Vector_21" fill-rule="evenodd" clip-rule="evenodd" d="M3.73537 20.6918C3.73537 20.7891 3.57658 20.7443 8.86143 22.1593C14.049 23.5384 13.5803 23.4232 13.6161 23.3169C13.6341 23.2721 13.4125 23.1671 13.1295 23.0787C11.9015 22.7253 3.93898 20.6213 3.84166 20.6213C3.78916 20.6213 3.73537 20.6572 3.73537 20.6918Z" fill="#15310A"/>
<path id="Vector_22" fill-rule="evenodd" clip-rule="evenodd" d="M36.8147 21.9289C33.4391 22.8393 32.0164 23.2632 32.0164 23.3426C32.0164 23.422 32.0689 23.4489 32.1496 23.413C32.229 23.3861 32.5389 23.2978 32.8385 23.2184C33.5454 23.0417 41.5527 20.8942 41.764 20.8327C41.8434 20.8058 41.9138 20.7444 41.9138 20.6995C41.9138 20.6547 41.8434 20.6201 41.764 20.6291C41.6756 20.6381 39.4488 21.2207 36.8147 21.9289Z" fill="#15310A"/>
<path id="Vector_23" fill-rule="evenodd" clip-rule="evenodd" d="M36.8147 23.7498C34.3227 24.1032 32.2546 24.4131 32.2277 24.4477C32.1919 24.4835 32.1829 24.5271 32.2098 24.554C32.2456 24.5988 38.6971 23.7408 41.3658 23.3438C42.038 23.2465 42.2404 23.0877 41.6756 23.1056C41.49 23.1146 39.3066 23.4066 36.8147 23.751V23.7498Z" fill="#15310A"/>
<path id="Vector_24" fill-rule="evenodd" clip-rule="evenodd" d="M3.73535 23.3873C3.73535 23.4757 4.92883 23.6524 8.34022 24.0763C12.3881 24.5885 13.2358 24.6589 12.9451 24.4745C12.9003 24.4476 10.9218 24.1915 8.54383 23.8995C6.16712 23.5986 4.11568 23.3425 3.98378 23.3169C3.81603 23.29 3.73663 23.3169 3.73663 23.3873H3.73535Z" fill="#15310A"/>
<path id="Vector_25" fill-rule="evenodd" clip-rule="evenodd" d="M4.04526 25.746C4.01837 25.7985 4.04526 25.8523 4.10672 25.8792C4.33594 25.9676 8.10974 25.8792 8.09309 25.7908C8.05723 25.6666 4.12465 25.6231 4.04526 25.746Z" fill="#15310A"/>
<path id="Vector_26" fill-rule="evenodd" clip-rule="evenodd" d="M37.6457 25.7205C37.469 25.8972 37.761 25.9241 39.6165 25.9241C41.3657 25.9241 41.6487 25.9061 41.6487 25.7909C41.6487 25.6756 41.3747 25.6577 39.678 25.6577C38.5908 25.6577 37.6713 25.6846 37.6457 25.7192V25.7205Z" fill="#15310A"/>
<path id="Vector_27" fill-rule="evenodd" clip-rule="evenodd" d="M38.1323 27.7002C38.1772 27.8334 40.9777 28.2124 41.084 28.1061C41.1903 27.9998 41.1019 27.9729 39.9264 27.8321C39.2989 27.7527 38.6266 27.6643 38.4333 27.6374C38.1682 27.5926 38.1067 27.6105 38.1323 27.6989V27.7002Z" fill="#15310A"/>
<path id="Vector_28" fill-rule="evenodd" clip-rule="evenodd" d="M6.03397 27.9999C5.28228 28.1152 4.64585 28.2125 4.6292 28.2125C4.60231 28.2215 4.6292 28.265 4.67402 28.3098C4.73548 28.3713 5.1952 28.3367 6.08775 28.2215C7.71405 27.9922 7.80241 27.9743 7.80241 27.868C7.80241 27.7528 7.65259 27.7617 6.03525 28.0012L6.03397 27.9999Z" fill="#15310A"/>
<path id="Vector_29" fill-rule="evenodd" clip-rule="evenodd" d="M7.75759 29.7146C6.54747 30.0501 5.53967 30.36 5.52174 30.4215C5.50381 30.474 5.52174 30.5188 5.5576 30.5188C5.6101 30.5188 9.54396 29.4854 10.1266 29.3163C10.206 29.2894 10.2764 29.228 10.2764 29.1832C10.2764 29.05 10.0472 29.0948 7.75759 29.7133V29.7146Z" fill="#15310A"/>
<path id="Vector_30" fill-rule="evenodd" clip-rule="evenodd" d="M35.4368 29.2023C35.552 29.3176 40.0672 30.5456 40.13 30.4752C40.2452 30.3599 39.9008 30.246 37.8058 29.6889C35.5251 29.0884 35.269 29.0346 35.4368 29.2023Z" fill="#15310A"/>
<path id="Vector_31" fill-rule="evenodd" clip-rule="evenodd" d="M11.7427 30.351C10.8937 30.7223 10.8322 30.7569 10.9206 30.8376C10.991 30.908 12.8389 30.1653 12.8389 30.0603C12.8389 29.9271 12.529 30.0078 11.7427 30.3522V30.351Z" fill="#15310A"/>
<path id="Vector_32" fill-rule="evenodd" clip-rule="evenodd" d="M13.5905 31.0144C12.3356 31.7392 12.2562 31.8007 12.3714 31.8711C12.4688 31.9326 14.8109 30.5803 14.8544 30.4395C14.9159 30.2628 14.7571 30.3332 13.5905 31.0144Z" fill="#15310A"/>
<path id="Vector_33" fill-rule="evenodd" clip-rule="evenodd" d="M30.8677 30.4483C30.8677 30.5982 31.7244 31.0758 31.7961 30.9695C31.823 30.917 31.7347 30.8107 31.6015 30.7313C31.1123 30.4308 30.8677 30.3365 30.8677 30.4483Z" fill="#15310A"/>
<path id="Vector_34" fill-rule="evenodd" clip-rule="evenodd" d="M38.2028 32.1015C38.2028 32.163 38.8661 32.4639 39.0249 32.4639C39.2016 32.4639 39.0428 32.2693 38.7688 32.154C38.4064 32.0042 38.2028 31.9863 38.2028 32.1015Z" fill="#15310A"/>
<path id="Vector_35" d="M49.3206 28.4622H51.025V34.6242H54.1815V36.1967H49.3206V28.4622Z" fill="#5A6342"/>
<path id="Vector_36" d="M56.192 28.4622H57.8964V36.1967H56.192V28.4622Z" fill="#5A6342"/>
<path id="Vector_37" d="M60.5395 28.4622H63.1172L64.8972 33.5088H64.919L66.7105 28.4622H69.278V36.1967H67.5736V30.2652H67.5518L65.5196 36.1967H64.2198L62.2644 30.2652H62.2426V36.1967H60.5382V28.4622H60.5395Z" fill="#5A6342"/>
<path id="Vector_38" d="M71.9223 28.4622H73.6267V36.1967H71.9223V28.4622Z" fill="#5A6342"/>
<path id="Vector_39" d="M77.7668 29.9706H75.5604V28.4634H81.6776V29.9706H79.4712V36.1979H77.7668V29.9706Z" fill="#5A6342"/>
<path id="Vector_40" d="M83.6983 28.4622H88.9524V30.036H85.4014V31.4779H88.7552V33.0504H85.4014V34.6242H89.1483V36.1967H83.697V28.4622H83.6983Z" fill="#5A6342"/>
<path id="Vector_41" d="M91.6083 28.4622H94.1643C94.7828 28.4622 95.3718 28.5313 95.9289 28.6696C96.4859 28.8079 96.9725 29.032 97.3874 29.3419C97.8023 29.6518 98.1314 30.0539 98.376 30.5495C98.6206 31.045 98.7422 31.6456 98.7422 32.3525C98.7422 32.9787 98.6244 33.5306 98.3875 34.007C98.1506 34.4846 97.8318 34.8841 97.4322 35.2081C97.0314 35.5321 96.5691 35.778 96.0454 35.9457C95.5217 36.1135 94.971 36.1967 94.396 36.1967H91.6108V28.4622H91.6083ZM93.3127 34.6242H94.1976C94.5907 34.6242 94.9569 34.5845 95.295 34.5038C95.6331 34.4244 95.9263 34.2912 96.1747 34.1056C96.4219 33.9199 96.6165 33.6766 96.7587 33.3731C96.9008 33.0709 96.9712 32.7008 96.9712 32.2641C96.9712 31.8851 96.8995 31.556 96.7587 31.2755C96.6165 30.9951 96.4257 30.7646 96.185 30.5815C95.9442 30.3984 95.6625 30.2626 95.3385 30.1717C95.0146 30.0808 94.6739 30.0347 94.3167 30.0347H93.3114V34.6229L93.3127 34.6242Z" fill="#5A6342"/>
<path id="Vector_42" d="M105.318 28.4622H108.191C108.592 28.4622 108.971 28.4994 109.327 28.5711C109.685 28.6441 109.996 28.7695 110.261 28.9475C110.526 29.1255 110.738 29.3663 110.895 29.6685C111.051 29.9707 111.129 30.351 111.129 30.8095C111.129 31.2679 111.056 31.6393 110.91 31.9453C110.764 32.2514 110.564 32.4947 110.309 32.6778C110.055 32.8596 109.752 32.989 109.403 33.0658C109.053 33.1426 108.674 33.1811 108.267 33.1811H107.022V36.1955H105.318V28.4609V28.4622ZM107.022 31.7392H108.158C108.311 31.7392 108.459 31.7251 108.6 31.6956C108.742 31.6662 108.869 31.6175 108.983 31.5484C109.096 31.4792 109.186 31.3844 109.256 31.2641C109.325 31.1437 109.359 30.9926 109.359 30.8108C109.359 30.6135 109.313 30.456 109.222 30.3357C109.131 30.2153 109.015 30.1231 108.873 30.0578C108.731 29.9925 108.572 29.9502 108.398 29.9323C108.223 29.9144 108.056 29.9054 107.896 29.9054H107.021V31.7404L107.022 31.7392Z" fill="#5A6342"/>
<path id="Vector_43" d="M115.03 28.4622H116.44L119.804 36.1967H117.881L117.216 34.5576H114.211L113.567 36.1967H111.689L115.031 28.4622H115.03ZM115.685 30.7121L114.745 33.1157H116.635L115.685 30.7121Z" fill="#5A6342"/>
<path id="Vector_44" d="M121.672 28.4622H124.664C125.058 28.4622 125.432 28.5006 125.784 28.5774C126.137 28.6542 126.446 28.781 126.712 28.9603C126.978 29.1383 127.188 29.379 127.346 29.6812C127.502 29.9835 127.58 30.3599 127.58 30.812C127.58 31.3588 127.438 31.8223 127.154 32.2052C126.87 32.5881 126.455 32.8301 125.908 32.9313L127.875 36.198H125.832L124.215 33.1067H123.374V36.198H121.669V28.4634L121.672 28.4622ZM123.376 31.6635H124.381C124.534 31.6635 124.696 31.6584 124.868 31.6469C125.04 31.6367 125.195 31.6034 125.333 31.5483C125.471 31.4932 125.586 31.4087 125.677 31.2922C125.768 31.1757 125.814 31.0117 125.814 30.8004C125.814 30.6032 125.775 30.447 125.694 30.3305C125.613 30.214 125.512 30.1243 125.388 30.0629C125.264 30.0014 125.122 29.9591 124.962 29.9374C124.801 29.9156 124.645 29.9041 124.492 29.9041H123.378V31.6623L123.376 31.6635Z" fill="#5A6342"/>
<path id="Vector_45" d="M131.143 29.9706H128.936V28.4634H135.054V29.9706H132.847V36.1979H131.143V29.9706Z" fill="#5A6342"/>
<path id="Vector_46" d="M137.009 28.4622H139.326L142.614 33.8366H142.636V28.4622H144.34V36.1967H142.112L138.736 30.6903H138.715V36.1967H137.01V28.4622H137.009Z" fill="#5A6342"/>
<path id="Vector_47" d="M147.07 28.4622H152.324V30.036H148.774V31.4779H152.127V33.0504H148.774V34.6242H152.52V36.1967H147.069V28.4622H147.07Z" fill="#5A6342"/>
<path id="Vector_48" d="M154.979 28.4622H157.972C158.365 28.4622 158.739 28.5006 159.091 28.5774C159.444 28.6542 159.753 28.781 160.019 28.9603C160.286 29.1383 160.496 29.379 160.653 29.6812C160.809 29.9835 160.888 30.3599 160.888 30.812C160.888 31.3588 160.745 31.8223 160.461 32.2052C160.177 32.5881 159.762 32.8301 159.215 32.9313L161.182 36.198H159.14L157.522 33.1067H156.681V36.198H154.977V28.4634L154.979 28.4622ZM156.683 31.6635H157.689C157.841 31.6635 158.004 31.6584 158.175 31.6469C158.347 31.6367 158.502 31.6034 158.64 31.5483C158.778 31.4932 158.894 31.4087 158.985 31.2922C159.076 31.1757 159.122 31.0117 159.122 30.8004C159.122 30.6032 159.082 30.447 159.001 30.3305C158.921 30.214 158.819 30.1243 158.695 30.0629C158.571 30.0014 158.429 29.9591 158.269 29.9374C158.109 29.9156 157.953 29.9041 157.799 29.9041H156.685V31.6623L156.683 31.6635Z" fill="#5A6342"/>
<path id="Vector_49" d="M166.974 30.3523C166.836 30.1781 166.647 30.0488 166.412 29.9642C166.175 29.881 165.951 29.8388 165.74 29.8388C165.615 29.8388 165.489 29.8528 165.357 29.8823C165.226 29.9117 165.102 29.9566 164.985 30.0193C164.869 30.0808 164.774 30.1627 164.701 30.2652C164.628 30.3676 164.592 30.4906 164.592 30.6365C164.592 30.8696 164.679 31.0476 164.855 31.1718C165.029 31.296 165.25 31.401 165.515 31.4881C165.782 31.5752 166.067 31.6623 166.373 31.7506C166.679 31.8377 166.965 31.9619 167.231 32.122C167.496 32.2821 167.718 32.4972 167.892 32.7661C168.066 33.035 168.155 33.3961 168.155 33.8469C168.155 34.2976 168.074 34.6524 167.914 34.9725C167.754 35.2926 167.537 35.559 167.263 35.7703C166.989 35.9816 166.673 36.1378 166.313 36.2402C165.952 36.3427 165.572 36.3926 165.171 36.3926C164.669 36.3926 164.203 36.3158 163.773 36.1634C163.342 36.011 162.943 35.7626 162.571 35.4207L163.784 34.0876C163.958 34.3207 164.18 34.5013 164.445 34.628C164.711 34.7561 164.985 34.8188 165.27 34.8188C165.408 34.8188 165.549 34.8022 165.69 34.7702C165.832 34.7369 165.959 34.6882 166.073 34.6229C166.185 34.5576 166.276 34.4744 166.345 34.3719C166.414 34.2695 166.449 34.1504 166.449 34.0108C166.449 33.7777 166.359 33.5946 166.181 33.4589C166.003 33.3244 165.779 33.2092 165.509 33.1144C165.24 33.0196 164.948 32.9249 164.636 32.8301C164.322 32.7354 164.031 32.6086 163.761 32.4472C163.492 32.2872 163.268 32.0759 163.089 31.8134C162.911 31.5509 162.821 31.2051 162.821 30.7761C162.821 30.3471 162.903 29.9963 163.067 29.6838C163.231 29.3701 163.45 29.1088 163.723 28.8975C163.995 28.6863 164.31 28.5275 164.668 28.4225C165.025 28.3175 165.393 28.2637 165.772 28.2637C166.208 28.2637 166.631 28.3251 167.039 28.4494C167.448 28.5736 167.815 28.781 168.143 29.0717L166.974 30.3497V30.3523Z" fill="#5A6342"/>
<path id="Vector_50" d="M170.513 28.4622H172.218V31.346H175.528V28.4622H177.232V36.1967H175.528V32.8545H172.218V36.1967H170.513V28.4622Z" fill="#5A6342"/>
<path id="Vector_51" d="M179.876 28.4622H181.58V36.1967H179.876V28.4622Z" fill="#5A6342"/>
<path id="Vector_52" d="M184.223 28.4622H187.097C187.497 28.4622 187.876 28.4994 188.232 28.5711C188.59 28.6441 188.901 28.7695 189.166 28.9475C189.431 29.1255 189.644 29.3663 189.8 29.6685C189.956 29.9707 190.034 30.351 190.034 30.8095C190.034 31.2679 189.961 31.6393 189.815 31.9453C189.669 32.2514 189.469 32.4947 189.215 32.6778C188.96 32.8596 188.658 32.989 188.308 33.0658C187.958 33.1426 187.579 33.1811 187.172 33.1811H185.927V36.1955H184.223V28.4609V28.4622ZM185.927 31.7392H187.063C187.216 31.7392 187.364 31.7251 187.505 31.6956C187.647 31.6662 187.774 31.6175 187.888 31.5484C188.001 31.4792 188.092 31.3844 188.161 31.2641C188.23 31.1437 188.264 30.9926 188.264 30.8108C188.264 30.6135 188.218 30.456 188.127 30.3357C188.037 30.2153 187.92 30.1231 187.778 30.0578C187.636 29.9925 187.477 29.9502 187.303 29.9323C187.129 29.9144 186.961 29.9054 186.801 29.9054H185.926V31.7404L185.927 31.7392Z" fill="#5A6342"/>
<path id="Vector_53" d="M55.6004 13.705H61.6933C61.6933 14.3312 61.6677 14.901 61.6152 15.4119C61.5626 15.9242 61.4589 16.3993 61.3014 16.8372C61.0824 17.4532 60.7841 17.9987 60.4089 18.4738C60.0324 18.9488 59.5919 19.3458 59.0861 19.6634C58.579 19.9822 58.0232 20.2243 57.4175 20.392C56.8118 20.5585 56.1754 20.643 55.5069 20.643C54.5875 20.643 53.75 20.4919 52.9932 20.1884C52.2364 19.8862 51.5859 19.4598 51.0429 18.9117C50.4999 18.3636 50.0774 17.7054 49.7739 16.9384C49.4704 16.1713 49.3193 15.3223 49.3193 14.3939C49.3193 13.4655 49.4678 12.6319 49.7662 11.8648C50.0633 11.0978 50.4871 10.4421 51.0352 9.89916C51.5833 9.35621 52.2441 8.93363 53.0162 8.63013C53.7884 8.32792 54.6502 8.17554 55.6004 8.17554C56.8323 8.17554 57.9131 8.44189 58.8428 8.9746C59.7724 9.50731 60.5075 10.332 61.0504 11.4486L58.1372 12.6549C57.8657 12.0082 57.5135 11.5434 57.0794 11.2604C56.6466 10.9787 56.1523 10.8378 55.5991 10.8378C55.1394 10.8378 54.7219 10.9236 54.3467 11.0965C53.9715 11.2694 53.6501 11.5139 53.3838 11.8328C53.1174 12.1517 52.9087 12.5358 52.7576 12.984C52.6065 13.4335 52.5309 13.9342 52.5309 14.4874C52.5309 14.9881 52.5962 15.4529 52.7268 15.8819C52.8574 16.3096 53.0534 16.681 53.3146 16.9934C53.5758 17.3072 53.8998 17.5492 54.2853 17.7221C54.672 17.8949 55.1202 17.9807 55.6324 17.9807C55.9346 17.9807 56.2279 17.9474 56.5096 17.8783C56.7913 17.8104 57.0449 17.7003 57.269 17.5492C57.493 17.3981 57.6787 17.2022 57.8247 16.9614C57.9707 16.722 58.0706 16.4287 58.1218 16.0842H55.6004V13.7037V13.705Z" fill="#15310A"/>
<path id="Vector_54" d="M73.847 20.3139H70.0258L67.0972 15.7718V20.3139H64.0277V8.50464H68.8042C69.4624 8.50464 70.0361 8.60068 70.5265 8.79404C71.017 8.98741 71.4216 9.2512 71.7405 9.58543C72.0593 9.91965 72.2988 10.3064 72.4614 10.7443C72.6228 11.1836 72.7047 11.6522 72.7047 12.1542C72.7047 13.0519 72.4883 13.7805 72.0542 14.3388C71.6214 14.8972 70.9811 15.2762 70.136 15.4747L73.8483 20.3139H73.847ZM67.0972 13.7831H67.6773C68.283 13.7831 68.7478 13.6576 69.0718 13.4079C69.3958 13.1569 69.5571 12.7971 69.5571 12.3271C69.5571 11.8571 69.3958 11.4973 69.0718 11.2463C68.7478 10.9953 68.283 10.8711 67.6773 10.8711H67.0972V13.7844V13.7831Z" fill="#15310A"/>
<path id="Vector_55" d="M82.241 11.1054H78.5915V13.0788H82.0374V15.6783H78.5915V17.7144H82.241V20.3139H75.522V8.50464H82.241V11.1042V11.1054Z" fill="#15310A"/>
<path id="Vector_56" d="M91.5609 11.1054H87.9113V13.0788H91.3573V15.6783H87.9113V17.7144H91.5609V20.3139H84.8418V8.50464H91.5609V11.1042V11.1054Z" fill="#15310A"/>
<path id="Vector_57" d="M94.1604 20.3139V8.50464H97.2299L102.899 15.7244V8.50464H105.953V20.3139H102.899L97.2299 13.0941V20.3139H94.1604Z" fill="#15310A"/>
<path id="Vector_58" d="M114.004 20.3139L116.008 8.50464H119.047L121.412 14.8011L123.762 8.50464H126.8L128.805 20.3139H125.75L124.732 13.5167L121.945 20.3139H120.723L118.076 13.5167L117.058 20.3139H114.004Z" fill="#15310A"/>
<path id="Vector_59" d="M130.605 14.4095C130.605 13.5323 130.766 12.7153 131.09 11.9585C131.414 11.2017 131.862 10.5409 132.437 9.97746C133.011 9.41402 133.699 8.97223 134.497 8.65465C135.294 8.33707 136.175 8.177 137.136 8.177C138.096 8.177 138.963 8.33579 139.767 8.65465C140.572 8.97351 141.263 9.41402 141.843 9.97746C142.423 10.5409 142.874 11.2017 143.198 11.9585C143.522 12.7153 143.683 13.5323 143.683 14.4095C143.683 15.2866 143.521 16.1036 143.198 16.8604C142.874 17.6172 142.423 18.278 141.843 18.8415C141.263 19.4049 140.572 19.8467 139.767 20.1643C138.963 20.4818 138.086 20.6419 137.136 20.6419C136.186 20.6419 135.296 20.4831 134.497 20.1643C133.698 19.8454 133.011 19.4049 132.437 18.8415C131.862 18.278 131.414 17.6172 131.09 16.8604C130.766 16.1036 130.605 15.2866 130.605 14.4095ZM133.815 14.4095C133.815 14.8794 133.904 15.3122 134.082 15.7092C134.26 16.1062 134.499 16.4507 134.803 16.7426C135.105 17.0346 135.458 17.2625 135.86 17.4239C136.262 17.5865 136.688 17.6672 137.137 17.6672C137.587 17.6672 138.012 17.5865 138.414 17.4239C138.816 17.2625 139.171 17.0346 139.479 16.7426C139.787 16.4507 140.03 16.1062 140.208 15.7092C140.386 15.3122 140.474 14.8794 140.474 14.4095C140.474 13.9395 140.386 13.5067 140.208 13.1097C140.03 12.7127 139.788 12.3683 139.479 12.0763C139.171 11.7843 138.816 11.5577 138.414 11.395C138.012 11.2337 137.587 11.1517 137.137 11.1517C136.688 11.1517 136.262 11.2324 135.86 11.395C135.458 11.5577 135.106 11.7843 134.803 12.0763C134.499 12.3683 134.26 12.7127 134.082 13.1097C133.904 13.5067 133.815 13.9395 133.815 14.4095Z" fill="#15310A"/>
<path id="Vector_60" d="M149.086 8.50464V14.9266C149.086 15.2711 149.099 15.6232 149.126 15.9831C149.151 16.3429 149.229 16.6695 149.36 16.9614C149.491 17.2534 149.697 17.4916 149.978 17.6747C150.26 17.8578 150.657 17.9487 151.168 17.9487C151.679 17.9487 152.073 17.8578 152.35 17.6747C152.627 17.4916 152.833 17.2547 152.969 16.9614C153.104 16.6695 153.185 16.3429 153.212 15.9831C153.237 15.6232 153.252 15.2711 153.252 14.9266V8.50464H156.306V15.3492C156.306 17.1868 155.886 18.5288 155.044 19.374C154.204 20.2204 152.911 20.643 151.168 20.643C149.425 20.643 148.129 20.2204 147.284 19.374C146.439 18.5275 146.015 17.1868 146.015 15.3492V8.50464H149.085H149.086Z" fill="#15310A"/>
<path id="Vector_61" d="M159.173 20.3139V8.50464H162.242L167.913 15.7244V8.50464H170.967V20.3139H167.913L162.242 13.0941V20.3139H159.173Z" fill="#15310A"/>
<path id="Vector_62" d="M178.312 11.1056V20.3154H175.243V11.1056H172.721V8.5061H180.833V11.1056H178.312Z" fill="#15310A"/>
<path id="Vector_63" d="M189.275 18.2625H184.889L184.185 20.3139H180.912L185.406 8.50464H188.758L193.252 20.3139H189.979L189.275 18.2625ZM188.46 15.9293L187.083 11.998L185.705 15.9293H188.462H188.46Z" fill="#15310A"/>
<path id="Vector_64" d="M198.061 8.50464V20.3139H194.991V8.50464H198.061Z" fill="#15310A"/>
<path id="Vector_65" d="M200.927 20.3139V8.50464H203.996L209.666 15.7244V8.50464H212.721V20.3139H209.666L203.996 13.0941V20.3139H200.927Z" fill="#15310A"/>
<path id="Vector_66" d="M220.77 14.4095C220.77 13.5323 220.931 12.7153 221.255 11.9585C221.579 11.2017 222.028 10.5409 222.603 9.97746C223.176 9.41402 223.864 8.97223 224.662 8.65465C225.461 8.33579 226.34 8.177 227.301 8.177C228.261 8.177 229.128 8.33579 229.932 8.65465C230.737 8.97351 231.428 9.41402 232.008 9.97746C232.588 10.5409 233.039 11.2017 233.363 11.9585C233.687 12.7153 233.848 13.5323 233.848 14.4095C233.848 15.2866 233.686 16.1036 233.363 16.8604C233.039 17.6172 232.588 18.278 232.008 18.8415C231.428 19.4049 230.737 19.8467 229.932 20.1643C229.128 20.4818 228.251 20.6419 227.301 20.6419C226.351 20.6419 225.461 20.4831 224.662 20.1643C223.863 19.8454 223.176 19.4049 222.603 18.8415C222.028 18.278 221.579 17.6172 221.255 16.8604C220.931 16.1036 220.77 15.2866 220.77 14.4095ZM223.98 14.4095C223.98 14.8794 224.069 15.3122 224.247 15.7092C224.425 16.1062 224.664 16.4507 224.968 16.7426C225.27 17.0346 225.623 17.2625 226.025 17.4239C226.428 17.5865 226.853 17.6672 227.302 17.6672C227.752 17.6672 228.177 17.5865 228.579 17.4239C228.981 17.2625 229.336 17.0346 229.644 16.7426C229.952 16.4507 230.195 16.1062 230.373 15.7092C230.551 15.3122 230.639 14.8794 230.639 14.4095C230.639 13.9395 230.551 13.5067 230.373 13.1097C230.195 12.7127 229.953 12.3683 229.644 12.0763C229.336 11.7843 228.981 11.5577 228.579 11.395C228.177 11.2337 227.752 11.1517 227.302 11.1517C226.853 11.1517 226.428 11.2324 226.025 11.395C225.623 11.5577 225.271 11.7843 224.968 12.0763C224.664 12.3683 224.425 12.7127 224.247 13.1097C224.069 13.5067 223.98 13.9395 223.98 14.4095Z" fill="#15310A"/>
<path id="Vector_67" d="M241.93 13.705H248.023C248.023 14.3312 247.997 14.901 247.945 15.4119C247.892 15.9242 247.788 16.3993 247.631 16.8372C247.412 17.4532 247.114 17.9987 246.738 18.4738C246.363 18.9488 245.921 19.3458 245.416 19.6634C244.91 19.9822 244.353 20.2243 243.747 20.392C243.141 20.5585 242.505 20.643 241.836 20.643C240.918 20.643 240.08 20.4919 239.323 20.1884C238.566 19.8862 237.915 19.4598 237.372 18.9117C236.829 18.3636 236.407 17.7054 236.103 16.9384C235.8 16.1713 235.649 15.3223 235.649 14.3939C235.649 13.4655 235.797 12.6319 236.096 11.8648C236.393 11.0978 236.817 10.4421 237.365 9.89916C237.913 9.35621 238.574 8.93363 239.346 8.63013C240.118 8.32792 240.98 8.17554 241.93 8.17554C243.162 8.17554 244.243 8.44189 245.172 8.9746C246.102 9.50731 246.838 10.332 247.381 11.4486L244.468 12.6549C244.197 12.0082 243.844 11.5434 243.41 11.2604C242.977 10.9787 242.483 10.8378 241.93 10.8378C241.47 10.8378 241.053 10.9236 240.676 11.0965C240.301 11.2694 239.98 11.5139 239.713 11.8328C239.447 12.1517 239.238 12.5358 239.087 12.984C238.936 13.4335 238.86 13.9342 238.86 14.4874C238.86 14.9881 238.926 15.4529 239.056 15.8819C239.187 16.3096 239.383 16.681 239.644 16.9934C239.905 17.3072 240.229 17.5492 240.615 17.7221C241 17.8949 241.45 17.9807 241.962 17.9807C242.264 17.9807 242.557 17.9474 242.839 17.8783C243.121 17.8104 243.374 17.7003 243.598 17.5492C243.823 17.3981 244.008 17.2022 244.154 16.9614C244.3 16.722 244.399 16.4287 244.451 16.0842H241.93V13.7037V13.705Z" fill="#15310A"/>
</g>
</svg>
